<svg width="54" height="46" viewBox="0 0 54 46" fill="none" xmlns="http://www.w3.org/2000/svg">
<g clip-path="url(#clip0_247401_507)">
<path d="M36.5002 9.49935H33.3335C33.3335 6.00018 30.4993 3.16602 27.0002 3.16602C23.501 3.16602 20.6668 6.00018 20.6668 9.49935H17.5002C15.7585 9.49935 14.3335 10.9243 14.3335 12.666V31.666C14.3335 33.4077 15.7585 34.8327 17.5002 34.8327H36.5002C38.2418 34.8327 39.6668 33.4077 39.6668 31.666V12.666C39.6668 10.9243 38.2418 9.49935 36.5002 9.49935ZM27.0002 6.33268C28.7418 6.33268 30.1668 7.75768 30.1668 9.49935H23.8335C23.8335 7.75768 25.2585 6.33268 27.0002 6.33268ZM36.5002 31.666H17.5002V12.666H20.6668V15.8327C20.6668 16.7035 21.3793 17.416 22.2502 17.416C23.121 17.416 23.8335 16.7035 23.8335 15.8327V12.666H30.1668V15.8327C30.1668 16.7035 30.8793 17.416 31.7502 17.416C32.621 17.416 33.3335 16.7035 33.3335 15.8327V12.666H36.5002V31.666Z" fill="#002F52"/>
</g>
<defs>
<clipPath id="clip0_247401_507">
<rect width="38" height="38" fill="white" transform="translate(8)"/>
</clipPath>
</defs>
</svg>
