<svg width="51" height="45" viewBox="0 0 51 45" fill="none" xmlns="http://www.w3.org/2000/svg">
<path d="M33.4087 5C30.3743 5 27.4621 6.41253 25.5613 8.64469C23.6604 6.41253 20.7482 5 17.7138 5C12.3427 5 8.12256 9.22016 8.12256 14.5913C8.12256 21.1831 14.0517 26.5542 23.0326 34.7155L25.5613 37L28.0899 34.6981C37.0708 26.5542 42.9999 21.1831 42.9999 14.5913C42.9999 9.22016 38.7798 5 33.4087 5ZM25.7356 32.1172L25.5613 32.2916L25.3869 32.1172C17.086 24.6011 11.6103 19.6311 11.6103 14.5913C11.6103 11.1035 14.2261 8.48774 17.7138 8.48774C20.3994 8.48774 23.0152 10.2142 23.9395 12.6033H27.2005C28.1073 10.2142 30.7231 8.48774 33.4087 8.48774C36.8964 8.48774 39.5122 11.1035 39.5122 14.5913C39.5122 19.6311 34.0365 24.6011 25.7356 32.1172Z" fill="url(#paint0_linear_247401_505)"/>
<defs>
<linearGradient id="paint0_linear_247401_505" x1="22.6952" y1="1.15999" x2="72.9448" y2="8.41189" gradientUnits="userSpaceOnUse">
<stop stop-color="#002F52"/>
<stop offset="1" stop-color="#326589"/>
</linearGradient>
</defs>
</svg>
