<svg width="48" height="45" viewBox="0 0 48 45" fill="none" xmlns="http://www.w3.org/2000/svg">
<path d="M24 5C15.168 5 8 12.168 8 21C8 29.832 15.168 37 24 37C32.832 37 40 29.832 40 21C40 12.168 32.832 5 24 5ZM16.112 31.048C16.8 29.608 20.992 28.2 24 28.2C27.008 28.2 31.216 29.608 31.888 31.048C29.712 32.776 26.976 33.8 24 33.8C21.024 33.8 18.288 32.776 16.112 31.048ZM34.176 28.728C31.888 25.944 26.336 25 24 25C21.664 25 16.112 25.944 13.824 28.728C12.192 26.584 11.2 23.912 11.2 21C11.2 13.944 16.944 8.2 24 8.2C31.056 8.2 36.8 13.944 36.8 21C36.8 23.912 35.808 26.584 34.176 28.728ZM24 11.4C20.896 11.4 18.4 13.896 18.4 17C18.4 20.104 20.896 22.6 24 22.6C27.104 22.6 29.6 20.104 29.6 17C29.6 13.896 27.104 11.4 24 11.4ZM24 19.4C22.672 19.4 21.6 18.328 21.6 17C21.6 15.672 22.672 14.6 24 14.6C25.328 14.6 26.4 15.672 26.4 17C26.4 18.328 25.328 19.4 24 19.4Z" fill="#002F52"/>
</svg>
